<svg width="501" height="223" viewBox="0 0 501 223" fill="none" xmlns="http://www.w3.org/2000/svg">
<path d="M61.8141 6.38306L0.276291 67.921L77.1985 144.843L154.121 67.921L92.5833 6.38306C90.5646 4.3597 88.1664 2.75438 85.5265 1.65908C82.8866 0.563783 80.0566 0 77.1985 0C74.3404 0 71.5104 0.563783 68.8705 1.65908C66.2306 2.75438 63.8327 4.3597 61.8141 6.38306Z" fill="#1A5995"/>
<path d="M234.769 6.38306L173.231 67.921L250.154 144.843L327.076 67.921L265.538 6.38306C263.52 4.3597 261.122 2.75438 258.482 1.65908C255.842 0.563783 253.012 0 250.154 0C247.296 0 244.466 0.563783 241.826 1.65908C239.186 2.75438 236.788 4.3597 234.769 6.38306V6.38306Z" fill="#2F9975"/>
<path d="M407.792 6.38306L346.254 67.921L423.177 144.843L500.099 67.921L438.561 6.38306C436.542 4.3597 434.144 2.75438 431.505 1.65908C428.865 0.563783 426.035 0 423.177 0C420.318 0 417.488 0.563783 414.849 1.65908C412.209 2.75438 409.811 4.3597 407.792 6.38306V6.38306Z" fill="#489657"/>
<path d="M163.642 77.5104L86.7884 154.433L148.326 215.971C150.345 217.994 152.743 219.599 155.383 220.695C158.023 221.79 160.853 222.354 163.711 222.354C166.569 222.354 169.399 221.79 172.039 220.695C174.679 219.599 177.077 217.994 179.095 215.971L240.771 154.433L163.642 77.5104Z" fill="#307BBF"/>
<path d="M336.665 77.5104L259.811 154.433L321.349 215.971C323.367 217.994 325.765 219.599 328.405 220.695C331.045 221.79 333.875 222.354 336.733 222.354C339.591 222.354 342.422 221.79 345.062 220.695C347.702 219.599 350.099 217.994 352.118 215.971L413.242 154.433L336.665 77.5104Z" fill="#58B368"/>
<path d="M163.642 77.5104L240.771 154.433H86.7884L163.642 77.5104Z" fill="white" fill-opacity="0.15"/>
<path d="M407.792 6.38306C409.811 4.3597 412.209 2.75438 414.849 1.65908C417.488 0.563783 420.318 0 423.177 0C426.035 0 428.865 0.563783 431.505 1.65908C434.144 2.75438 436.542 4.3597 438.561 6.38306L500.099 67.921H346.254L407.792 6.38306Z" fill="white" fill-opacity="0.15"/>
<path d="M336.665 77.5104L413.242 154.433H259.811L336.665 77.5104Z" fill="white" fill-opacity="0.15"/>
<path d="M234.768 6.38306C236.787 4.3597 239.185 2.75438 241.824 1.65908C244.464 0.563783 247.294 0 250.152 0C253.011 0 255.841 0.563783 258.48 1.65908C261.12 2.75438 263.519 4.3597 265.537 6.38306L327.075 67.921H173.299L234.768 6.38306Z" fill="white" fill-opacity="0.15"/>
<path d="M61.8141 6.38306C63.8327 4.3597 66.2306 2.75438 68.8705 1.65908C71.5104 0.563783 74.3404 0 77.1985 0C80.0566 0 82.8866 0.563783 85.5265 1.65908C88.1664 2.75438 90.5646 4.3597 92.5833 6.38306L154.121 67.921H0.276291L61.8141 6.38306Z" fill="white" fill-opacity="0.15"/>
</svg>
